<?xml version="1.0" encoding="UTF-8" standalone="no"?>
<!-- Created with Inkscape (http://www.inkscape.org/) -->

<svg
   width="210mm"
   height="297mm"
   viewBox="0 0 210 297"
   version="1.1"
   id="svg1"
   xml:space="preserve"
   inkscape:version="1.4.2 (f4327f4, 2025-05-13)"
   sodipodi:docname="logoma2050.svg"
   xmlns:inkscape="http://www.inkscape.org/namespaces/inkscape"
   xmlns:sodipodi="http://sodipodi.sourceforge.net/DTD/sodipodi-0.dtd"
   xmlns="http://www.w3.org/2000/svg"
   xmlns:svg="http://www.w3.org/2000/svg"><sodipodi:namedview
     id="namedview1"
     pagecolor="#ffffff"
     bordercolor="#000000"
     borderopacity="0.25"
     inkscape:showpageshadow="2"
     inkscape:pageopacity="0.0"
     inkscape:pagecheckerboard="0"
     inkscape:deskcolor="#d1d1d1"
     inkscape:document-units="mm"
     inkscape:zoom="0.71891835"
     inkscape:cx="397.12437"
     inkscape:cy="561.25984"
     inkscape:window-width="1920"
     inkscape:window-height="1009"
     inkscape:window-x="-8"
     inkscape:window-y="-8"
     inkscape:window-maximized="1"
     inkscape:current-layer="layer1" /><defs
     id="defs1" /><g
     inkscape:label="Camada 1"
     inkscape:groupmode="layer"
     id="layer1"><g
       id="g1"
       transform="matrix(0.73267652,0,0,0.80123105,32.480269,12.045901)"><path
         style="fill:#e8a536"
         d="m 83.436871,249.231 c -4.724208,-0.49766 -8.809675,-1.67885 -13.189995,-3.81351 -4.899779,-2.3878 -11.773959,-7.2579 -11.773959,-8.34142 0,-0.56507 11.468505,-14.12204 12.056164,-14.25164 0.217044,-0.0479 1.432964,0.68524 2.702044,1.62911 4.261559,3.16952 8.420139,5.28663 11.832418,6.02381 2.165556,0.46784 7.333323,0.46726 8.995833,-0.001 3.224578,-0.90826 5.271349,-2.5052 6.444864,-5.02845 0.93919,-2.01942 0.97588,-5.32245 0.0811,-7.29892 -1.988177,-4.39153 -7.900725,-6.55562 -14.474411,-5.29786 -2.369286,0.45332 -4.142516,1.08144 -6.726302,2.38261 -1.016658,0.51198 -2.04817,0.93087 -2.292248,0.93087 -0.633083,0 -12.569998,-6.66507 -12.742632,-7.11495 -0.19894,-0.51843 1.497591,-32.39724 2.000981,-37.59963 l 0.192011,-1.98438 h 26.193751 26.19375 v 8.86355 8.86354 l -17.36553,0.068 c -13.456725,0.0527 -17.424055,0.14205 -17.625553,0.39687 -0.268286,0.33928 -0.952187,10.77585 -0.721266,11.00677 0.07122,0.0712 1.527672,-0.3091 3.236549,-0.84516 4.94906,-1.55247 9.083088,-1.87794 14.08726,-1.10909 6.897,1.05967 11.91125,3.50969 15.95417,7.7954 0.98209,1.04106 1.88482,1.83153 2.00607,1.75659 0.12125,-0.0749 0.28525,-1.12199 0.36444,-2.32679 0.32527,-4.94867 2.10531,-11.25097 4.57937,-16.21347 4.27122,-8.56727 11.70736,-15.26607 20.09074,-18.09865 4.01546,-1.35674 6.35897,-1.69875 11.64167,-1.69897 5.35796,-2.2e-4 7.06575,0.23927 11.36938,1.59439 10.53458,3.3171 19.08682,12.36177 22.84119,24.15636 2.94526,9.25274 2.94398,20.59949 -0.003,29.89792 -4.53454,14.30577 -15.77349,24.07913 -29.55966,25.70503 -3.12978,0.36911 -10.09059,0.14825 -12.58504,-0.39932 -10.37306,-2.27703 -18.7767,-8.89484 -23.65098,-18.62498 -0.60141,-1.20055 -1.18666,-2.18282 -1.30057,-2.18282 -0.1139,0 -0.54112,1.0418 -0.94938,2.31511 -3.24815,10.13052 -12.16117,16.97996 -24.369907,18.72769 -2.800483,0.4009 -10.229779,0.46533 -13.532922,0.11737 z m 12.286579,-0.27187 c 6.00838,-0.65097 12.33959,-3.04262 16.59218,-6.26779 4.24235,-3.2174 7.45615,-7.90521 8.9759,-13.0927 0.42967,-1.46663 0.75715,-2.16088 0.99211,-2.10328 0.19291,0.0473 0.39907,0.22589 0.45813,0.39688 0.0591,0.17099 0.61541,1.28489 1.23632,2.47533 4.23125,8.11247 11.03304,14.21875 18.89691,16.96461 4.18088,1.45986 6.21637,1.75692 12.03854,1.75692 5.75502,0 7.67677,-0.27319 11.84492,-1.68386 12.16413,-4.11683 21.13143,-15.31717 23.74111,-29.65316 0.69291,-3.80637 0.95964,-10.52802 0.56873,-14.33173 -1.02055,-9.93039 -4.84667,-18.66817 -10.93705,-24.97715 -4.89641,-5.07216 -10.45404,-8.14595 -17.47061,-9.66259 -3.86909,-0.8363 -10.80798,-0.84367 -14.62626,-0.0155 -6.30401,1.36726 -10.9079,3.64299 -15.75465,7.78759 -7.18007,6.1399 -12.3481,17.0973 -13.1756,27.93527 -0.21472,2.81233 -0.55348,2.99023 -2.02346,1.06267 -2.0781,-2.72499 -6.01866,-5.43824 -10.02166,-6.90037 -3.94702,-1.44168 -6.71116,-1.90302 -11.412134,-1.90468 -4.525558,-0.002 -6.731938,0.38415 -10.665274,1.86466 -1.161915,0.43734 -1.804947,0.55977 -1.986509,0.37821 -0.336837,-0.33684 0.294884,-11.11267 0.679878,-11.59728 0.205422,-0.25858 4.066001,-0.33073 17.696459,-0.33073 h 17.43372 l -0.0698,-8.66511 -0.0698,-8.6651 -25.870828,-0.0675 c -20.556684,-0.0536 -25.896935,7.5e-4 -25.997934,0.26458 -0.143158,0.37396 -0.570677,7.38924 -1.590245,26.09482 -0.583279,10.70118 -0.63935,12.85255 -0.342205,13.12997 0.806106,0.75258 12.003081,6.77193 12.380849,6.65579 0.225468,-0.0693 1.600567,-0.66823 3.055776,-1.33092 3.992577,-1.81816 5.49365,-2.15302 9.525,-2.1248 2.826171,0.0198 3.718926,0.12617 5.005941,0.59655 3.181702,1.16284 4.975086,2.65566 6.072146,5.05447 0.78551,1.71759 0.78551,5.71763 0,7.43522 -1.6056,3.51079 -4.949558,5.43847 -9.943565,5.73213 -5.979222,0.3516 -11.115571,-1.48482 -17.735082,-6.34088 -1.338968,-0.98227 -2.517636,-1.78594 -2.619261,-1.78594 -0.416072,0 -11.909807,13.7988 -11.77858,14.14077 0.220209,0.57386 3.250119,2.99858 6.011092,4.81045 6.179934,4.05553 12.298707,6.309 18.901892,6.96132 3.186518,0.31479 9.090667,0.31619 11.982824,0.003 z m 56.59678,-18.78231 c -5.36151,-1.33955 -9.63076,-6.78032 -11.3065,-14.40911 -0.92706,-4.22043 -0.80322,-11.22342 0.27838,-15.74271 1.59707,-6.67303 5.9963,-11.67415 11.30885,-12.85608 7.20284,-1.60248 13.95876,3.86886 16.36456,13.25295 0.83157,3.24366 1.14393,9.51518 0.656,13.17117 -1.09045,8.17065 -4.75157,14.05238 -10.01347,16.08705 -1.70961,0.66107 -5.57544,0.92456 -7.28782,0.49673 z m 5.83289,-0.36497 c 2.26138,-0.60202 3.75952,-1.46821 5.49057,-3.17455 2.50613,-2.47033 3.98366,-5.38329 5.17933,-10.21104 0.55136,-2.22622 0.62036,-3.11009 0.60916,-7.8023 -0.0116,-4.85453 -0.0704,-5.51024 -0.71213,-7.9375 -2.01402,-7.61803 -6.41175,-12.45231 -12.14866,-13.35462 -3.72743,-0.58626 -7.46675,0.87692 -10.47175,4.09754 -2.13039,2.28326 -3.498,4.8838 -4.47328,8.50605 -0.65191,2.42124 -0.7021,3.00055 -0.71831,8.29165 -0.0143,4.66593 0.0714,6.06905 0.47658,7.80521 1.72956,7.41071 5.60057,12.34409 10.77847,13.7365 1.83563,0.49363 4.23279,0.51086 5.99002,0.0431 z M 18.94685,223.60333 c -0.537818,-0.56136 -1.16347,-0.84685 -2.364605,-1.07901 -2.235152,-0.43201 -2.782061,-0.83392 -2.989705,-2.19707 -0.144353,-0.94766 -0.490721,-1.44048 -2.251362,-3.20335 -1.144419,-1.14587 -2.0807621,-2.19536 -2.0807621,-2.3322 0,-0.13685 0.2517702,-0.83407 0.5594894,-1.54938 0.3077187,-0.71531 0.4953977,-1.46759 0.4170627,-1.67173 -0.07833,-0.20413 -0.8164326,-0.75678 -1.6402169,-1.2281 -1.1886024,-0.68005 -1.7487329,-1.24628 -2.7134294,-2.74295 -0.6686018,-1.0373 -1.2240715,-2.10593 -1.234377,-2.37474 -0.015273,-0.39837 0.5927436,-0.67884 3.2885545,-1.51694 1.8190105,-0.56552 3.5649308,-1.0302 3.8798228,-1.03262 0.567208,-0.004 1.052113,0.53714 4.497636,5.02268 0.726574,0.94588 3.008412,3.90843 5.070751,6.58344 2.062339,2.67501 3.749707,5.089 3.749707,5.36442 0,0.27542 -0.420405,1.33558 -0.934234,2.3559 -1.021672,2.02877 -1.5049,2.36499 -3.399114,2.36499 -0.893444,0 -1.273856,-0.15652 -1.855218,-0.76334 z m 6.560964,-20.34124 c -0.158983,-0.10691 -1.63973,-1.92079 -3.29055,-4.03084 -4.30245,-5.49933 -5.04681,-6.35 -5.556406,-6.35 -0.249823,0 -1.808764,0.4062 -3.464312,0.90268 -3.2858433,0.98537 -7.9910299,2.27232 -8.3077669,2.27232 -0.2463962,0 0.046352,-2.63412 0.3945226,-3.54988 0.1404637,-0.36944 0.8546518,-1.10225 1.5870847,-1.62845 l 1.3316961,-0.95673 v -1.65303 -1.65303 l -1.7270504,-1.6584 c -1.1941796,-1.14671 -1.867673,-1.6122 -2.1828125,-1.50867 -2.2953361,0.75407 -2.7343598,0.8175 -2.9741126,0.42971 -0.155042,-0.25078 -0.1263997,-0.4993 0.080523,-0.69868 0.1766384,-0.1702 2.5833484,-0.98815 5.3482443,-1.81767 2.7648959,-0.82952 6.6939587,-2.01528 8.7312497,-2.63502 2.037292,-0.61973 4.332868,-1.28373 5.10128,-1.47555 1.352702,-0.33768 1.417291,-0.32819 2.031907,0.29863 1.45128,1.48009 6.757439,8.58402 6.757439,9.04692 0,0.27591 -0.803672,1.89218 -1.785938,3.59169 l -1.785937,3.09003 v 5.09316 c 0,2.80123 0,5.09136 0,5.08918 0,-0.002 -0.130078,-0.0915 -0.289061,-0.19837 z m 6.989455,-27.38032 c -0.226712,-0.1819 -1.992592,-2.38456 -3.924178,-4.89479 -1.931586,-2.51024 -3.667754,-4.56406 -3.85815,-4.56406 -0.190397,0 -6.723334,1.91127 -14.517638,4.24727 -7.7943044,2.33601 -14.3046186,4.16499 -14.4673652,4.0644 -0.1627465,-0.10058 -0.7679076,-1.20453 -1.3448023,-2.45321 -0.8965926,-1.94068 -1.3591103,-2.5612 -3.1852416,-4.27338 -1.6664249,-1.56245 -2.0829559,-2.09455 -1.8936399,-2.41904 0.24871,-0.4263 2.8569787,-2.70002 4.5738647,-3.98719 0.7336834,-0.55005 5.0368501,-1.94026 18.2223013,-5.88698 9.493987,-2.84178 17.440506,-5.16687 17.658929,-5.16687 0.419673,0 0.503392,0.10337 9.642,11.90625 5.41744,6.99683 6.37222,8.46429 5.509672,8.46814 -0.181901,8.1e-4 -0.763537,0.12169 -1.292525,0.26863 -0.842246,0.23394 -0.997778,0.41005 -1.251274,1.41677 -0.417502,1.65805 -0.771623,1.85868 -2.927114,1.65835 -1.73276,-0.16105 -1.931953,-0.1181 -4.121321,0.88861 -1.265307,0.5818 -2.325479,1.05783 -2.355936,1.05783 -0.03046,0 -0.24087,-0.14883 -0.467582,-0.33073 z m 11.605722,-22.53974 c -5.342133,-6.90344 -9.902802,-12.74154 -10.134819,-12.97356 -0.232016,-0.23202 -0.617662,-0.36735 -0.856989,-0.30073 -0.239328,0.0666 -8.260976,2.46112 -17.825884,5.32113 -9.5649086,2.86 -17.5970464,5.16028 -17.8491952,5.11172 -0.6640535,-0.12789 -2.707856,-3.1219 -2.7186821,-3.98266 -0.005,-0.39748 0.1340236,-1.55726 0.3089395,-2.5773 0.3540023,-2.06438 0.4911839,-1.72196 -1.750144,-4.36846 -0.8821122,-1.04157 -0.979952,-1.27404 -0.6614583,-1.57165 0.4596942,-0.42956 45.6924021,-13.98959 46.1192361,-13.8258 0.168337,0.0646 4.761237,5.87617 10.206444,12.9146 5.445208,7.03842 12.090917,15.62906 14.768244,19.09031 3.251795,4.20391 4.814918,6.43115 4.708377,6.70879 -0.283165,0.73792 -1.529448,0.15942 -2.994164,-1.38983 -0.971101,-1.02715 -1.524018,-1.42106 -1.852083,-1.31946 -0.257228,0.0797 -1.598781,0.49433 -2.981229,0.92147 -1.382448,0.42715 -2.714492,0.85681 -2.960097,0.9548 -0.245606,0.098 -1.047432,1.0017 -1.781837,2.00826 -0.734404,1.00655 -1.491972,1.83009 -1.683484,1.83009 -0.191512,0 -4.719041,-5.64827 -10.061175,-12.55172 z m 26.773822,-2.06651 c -3.526694,-4.54753 -7.52079,-9.69698 -8.875769,-11.44323 -3.300817,-4.25398 -9.033446,-11.66499 -14.633386,-18.91771 -6.173047,-7.99497 -5.594398,-7.42362 -7.106045,-7.01642 -1.625375,0.43784 -15.229585,4.49161 -17.77203,5.2957 -4.085383,1.29207 -39.325401,11.77489 -39.583564,11.77489 -0.147953,0 -0.522274,-0.34256 -0.831824,-0.76125 -0.468069,-0.6331 -0.821644,-0.7915 -2.100278,-0.94092 -0.845603,-0.0988 -1.904774,-0.29479 -2.353714,-0.43549 -0.981589,-0.30764 -2.278282,-1.58919 -2.016712,-1.99316 0.319831,-0.49395 11.518998,-8.62526 12.357966,-8.97267 0.436563,-0.18078 1.960244,-0.59172 3.3859597,-0.91321 1.4257153,-0.32149 2.7163525,-0.7223 2.8680828,-0.89068 0.1517302,-0.16839 0.5330484,-0.95443 0.8473738,-1.74677 l 0.5715006,-1.4406 24.8708341,-7.47411 c 13.678958,-4.11077 25.229796,-7.480854 25.668527,-7.489087 0.732758,-0.01375 1.174289,0.472766 5.423959,5.976607 2.544445,3.29536 9.296959,12.01669 15.005585,19.38072 5.708626,7.36404 10.38183,13.57923 10.384896,13.81153 0.0031,0.23231 -0.162254,0.76809 -0.367379,1.19063 -0.940581,1.93751 -2.272879,5.46333 -2.272879,6.01499 0,1.30534 0.880222,3.44821 2.647419,6.44508 1.772489,3.00583 1.842597,3.19035 1.840773,4.84464 -0.0019,1.72808 -0.72735,3.96875 -1.284931,3.96875 -0.144206,0 -3.147671,-3.7207 -6.674365,-8.26823 z m 6.27334,-30.42708 C 76.215319,119.64789 72.91704,115.39141 69.820644,111.38958 66.724248,107.38776 61.296958,100.38292 57.76,95.823282 c -3.536958,-4.559643 -6.430833,-8.402381 -6.430833,-8.539418 0,-0.579814 1.88351,-3.926427 2.469065,-4.387025 0.350896,-0.276015 1.175679,-0.787088 1.832851,-1.135716 1.148272,-0.609157 1.221805,-0.616213 1.886054,-0.180981 0.380158,0.249089 0.691197,0.604358 0.691197,0.789486 0,0.185128 -0.714375,1.725366 -1.5875,3.422751 -2.330971,4.531488 -2.170139,4.744648 0.926041,1.227332 1.164167,-1.322514 2.338187,-2.523272 2.608933,-2.668351 0.670687,-0.359389 4.008427,-1.272194 4.651869,-1.272194 0.465167,0 1.607363,1.303477 4.380865,4.999452 0.479107,0.638459 6.047785,7.81717 12.092021,15.588102 2.585716,3.32439 2.858558,4.15169 1.648514,4.99853 -2.617047,1.83152 -2.793173,2.03573 -3.708278,4.29951 -0.497272,1.23015 -0.904131,2.36106 -0.904131,2.51313 0,0.15207 0.475279,1.22918 1.056177,2.39357 l 1.056178,2.11708 -0.43826,1.52136 c -0.250112,0.86822 -0.589086,1.52135 -0.789586,1.52135 -0.193229,0 -1.11619,-0.98227 -2.051024,-2.18281 z M 1.7615321,102.01024 C 1.5526759,101.46597 3.9770387,97.888515 8.5408809,92.006447 l 2.6192861,-3.375844 -0.339028,-1.322816 c -0.231046,-0.901494 -0.252839,-1.409004 -0.06843,-1.593419 0.148832,-0.148832 3.177935,-1.145913 6.73134,-2.215737 C 35.843933,77.97102 47.138761,74.6125 47.368438,74.6125 c 0.471639,0 0.264784,0.546094 -0.801771,2.116666 -0.99513,1.465394 -1.27102,2.116667 -0.896656,2.116667 0.08892,0 1.206793,-0.833438 2.484156,-1.852083 1.277363,-1.018646 2.454546,-1.852084 2.615962,-1.852084 0.363588,0 1.870053,2.35773 1.876927,2.937532 0.0028,0.233195 -0.728429,1.000227 -1.624875,1.704515 -1.461421,1.148157 -1.762757,1.562173 -2.915124,4.00519 -0.706871,1.498566 -1.358639,3.260318 -1.448374,3.915004 -0.08974,0.654686 -0.295976,1.294188 -0.458314,1.421115 -0.162338,0.126928 -5.176723,1.690433 -11.143077,3.474457 -5.966355,1.784024 -13.526824,4.05226 -16.801043,5.040526 -9.1725083,2.768565 -15.9130531,4.753745 -16.140992,4.753745 -0.1136078,0 -0.272784,-0.17258 -0.3537249,-0.38351 z m 87.8895209,-1.7993 c -0.224632,-0.1819 -2.896529,-3.546925 -5.93755,-7.477828 -7.398621,-9.563653 -8.571836,-11.113805 -8.571836,-11.325853 0,-0.304066 1.396697,-0.200916 3.026082,0.223485 1.346209,0.350643 2.04817,0.820505 5.344502,3.577377 2.087109,1.745544 4.084706,3.283959 4.439103,3.418701 0.354397,0.134741 2.322199,0.267943 4.372892,0.296003 3.132548,0.04286 3.805153,-0.01832 4.207873,-0.382778 0.721848,-0.653264 0.973151,-0.547233 1.950516,0.822973 1.123682,1.575334 1.587605,2.642408 1.402452,3.22578 -0.07908,0.249147 -1.786887,2.009656 -3.795135,3.912242 -2.734252,2.590392 -3.913,3.531888 -4.693051,3.748458 -1.29508,0.35957 -1.253048,0.36049 -1.745848,-0.0386 z M 15.226825,73.629052 c 0.25906,-0.395376 0.987128,-1.352509 1.61793,-2.126963 0.630801,-0.774454 1.146911,-1.616005 1.146911,-1.870113 0,-0.254109 -0.294556,-1.350804 -0.654568,-2.4371 -0.360013,-1.086297 -0.657669,-2.265815 -0.661459,-2.621153 -0.0038,-0.355338 0.439595,-1.4269 0.985298,-2.38125 0.545703,-0.95435 1.170781,-2.083448 1.389062,-2.509106 0.329924,-0.643365 0.753951,-0.882842 2.513542,-1.419564 1.757695,-0.536145 2.251281,-0.595141 2.910417,-0.347868 0.715361,0.268365 0.841656,0.232183 1.278839,-0.366373 0.549801,-0.752744 1.526134,-0.872528 2.042316,-0.250566 0.283771,0.341923 0.261057,0.642123 -0.131102,1.732681 -0.260889,0.725506 -0.395839,1.397606 -0.29989,1.493555 0.09595,0.09595 0.893326,-0.220751 1.77195,-0.703777 l 1.597498,-0.878229 0.731318,0.700647 c 0.626639,0.600358 0.881101,0.676695 1.777754,0.533314 0.791264,-0.126528 1.133279,-0.06269 1.402567,0.26178 0.304448,0.366836 0.239513,0.680108 -0.447439,2.158631 -0.776794,1.671891 -0.791743,1.774358 -0.448613,3.075101 0.195227,0.74007 0.464145,1.454768 0.597595,1.588219 0.326052,0.326051 2.089914,-1.754991 2.300617,-2.714316 0.202424,-0.921628 1.245922,-1.995689 2.16237,-2.225703 0.546528,-0.13717 0.864922,-0.0036 1.531365,0.64232 l 0.841378,0.815496 0.736336,-0.682413 c 0.841266,-0.779659 1.568995,-0.768421 1.683179,0.02599 0.10827,0.753267 -0.86714,2.932568 -1.44972,3.239022 -0.772494,0.406356 -26.262645,7.986599 -26.856606,7.986599 -0.526536,0 -0.528236,-0.01775 -0.06884,-0.718864 z"
         id="path4" /><path
         style="fill:#209dab"
         d="m 178.99063,164.67792 c -12.20083,-1.22553 -21.81405,-9.24503 -25.92647,-21.62826 -4.88019,-14.69515 -1.36106,-31.34633 8.6208,-40.79036 3.62886,-3.433331 8.1523,-5.954811 12.88559,-7.182751 3.50426,-0.909098 9.63471,-1.144153 13.27327,-0.508926 6.63038,1.15754 11.65307,3.842136 16.44411,8.789257 5.00161,5.16456 8.0942,12.07461 9.24054,20.64696 0.4079,3.05028 0.20444,10.20121 -0.38079,13.38339 -1.37804,7.49305 -4.78222,14.09616 -9.72016,18.85426 -5.84491,5.63205 -11.85753,8.17501 -19.93897,8.43296 -1.89178,0.0604 -3.91584,0.0619 -4.49792,0.003 z m 7.86065,-17.49639 c 4.36583,-2.04723 7.22017,-7.20163 7.93231,-14.32424 0.5845,-5.84603 -0.45852,-11.86831 -2.74882,-15.87134 -1.16413,-2.03467 -3.50234,-4.30639 -5.37122,-5.21848 -1.44854,-0.70694 -1.83118,-0.77476 -4.37119,-0.77476 -2.59756,0 -2.89832,0.0566 -4.49792,0.84614 -6.01483,2.96893 -9.0893,11.91102 -7.66887,22.3049 0.94753,6.93348 4.68463,12.30976 9.50782,13.67817 2.01292,0.57109 5.24606,0.28424 7.21789,-0.64039 z m -94.180966,16.15574 c -0.252678,-0.10196 -0.329773,-1.73612 -0.326678,-6.92442 0.0022,-3.73504 0.09152,-6.92199 0.198438,-7.08213 0.184293,-0.27604 5.186642,-4.12912 17.297286,-13.32332 11.3346,-8.60504 14.28888,-11.23904 15.67613,-13.97666 1.43754,-2.83684 1.41825,-6.28563 -0.0469,-8.38594 -1.96862,-2.82203 -6.50085,-3.7822 -10.46935,-2.21796 -2.07564,0.81814 -3.94516,2.20282 -6.77161,5.01547 -1.44817,1.4411 -2.74366,2.62019 -2.87885,2.62019 -0.41164,0 -12.076859,-9.78748 -12.171073,-10.21191 -0.1808,-0.81449 4.891496,-6.31218 7.853353,-8.51199 3.80811,-2.828317 7.95625,-4.601824 12.87207,-5.503351 3.2096,-0.58862 9.32077,-0.599649 12.32192,-0.02224 13.23898,2.547126 20.58631,11.998011 19.04979,24.503761 -1.00771,8.20172 -5.09414,13.30844 -17.69052,22.10748 -6.8327,4.77289 -8.60955,6.07956 -8.72074,6.41314 -0.0866,0.25978 2.74091,0.32928 13.39673,0.32928 13.08268,0 13.51509,0.016 13.78038,0.51177 0.16796,0.31383 0.2739,3.08354 0.2739,7.16114 0,4.07761 -0.10594,6.84731 -0.2739,7.16115 -0.26809,0.50094 -0.83242,0.51133 -26.65677,0.49088 -14.51058,-0.0115 -26.531705,-0.0809 -26.713606,-0.15434 z"
         id="path3" /><path
         style="fill:#d62b34"
         d="m 83.740626,248.95629 c -6.603185,-0.65232 -12.721958,-2.90579 -18.901892,-6.96132 -2.760973,-1.81187 -5.790883,-4.23659 -6.011092,-4.81045 -0.131227,-0.34197 11.362508,-14.14077 11.77858,-14.14077 0.101625,0 1.280293,0.80367 2.619261,1.78594 6.619511,4.85606 11.75586,6.69248 17.735082,6.34088 4.994007,-0.29366 8.337965,-2.22134 9.943565,-5.73213 0.78551,-1.71759 0.78551,-5.71763 0,-7.43522 -1.09706,-2.39881 -2.890444,-3.89163 -6.072146,-5.05447 -1.287015,-0.47038 -2.17977,-0.57677 -5.005941,-0.59655 -4.03135,-0.0282 -5.532423,0.30664 -9.525,2.1248 -1.455209,0.66269 -2.830308,1.2616 -3.055776,1.33092 -0.377768,0.11614 -11.574743,-5.90321 -12.380849,-6.65579 -0.297145,-0.27742 -0.241074,-2.42879 0.342205,-13.12997 1.019568,-18.70558 1.447087,-25.72086 1.590245,-26.09482 0.100999,-0.26383 5.44125,-0.31818 25.997934,-0.26458 l 25.870828,0.0675 0.0698,8.6651 0.0698,8.66511 h -17.43372 c -13.630458,0 -17.491037,0.0721 -17.696459,0.33073 -0.384994,0.48461 -1.016715,11.26044 -0.679878,11.59728 0.181562,0.18156 0.824594,0.0591 1.986509,-0.37821 3.933336,-1.48051 6.139716,-1.86626 10.665274,-1.86466 4.700974,0.002 7.465114,0.463 11.412134,1.90468 4.003,1.46213 7.94356,4.17538 10.02166,6.90037 1.46998,1.92756 1.80874,1.74966 2.02346,-1.06267 0.8275,-10.83797 5.99553,-21.79537 13.1756,-27.93527 4.84675,-4.1446 9.45064,-6.42033 15.75465,-7.78759 3.81828,-0.82814 10.75717,-0.82077 14.62626,0.0155 7.01657,1.51664 12.5742,4.59043 17.47061,9.66259 6.09038,6.30898 9.9165,15.04676 10.93705,24.97715 0.39091,3.80371 0.12418,10.52536 -0.56873,14.33173 -2.9389,16.14453 -13.45625,27.6935 -28.10674,30.86365 -3.14581,0.68071 -11.84452,0.6735 -15.01991,-0.0125 -10.18006,-2.19909 -18.3535,-8.57009 -23.39483,-18.23571 -0.62091,-1.19044 -1.17725,-2.30434 -1.23632,-2.47533 -0.0591,-0.17099 -0.26522,-0.34958 -0.45813,-0.39688 -0.23496,-0.0576 -0.56244,0.63665 -0.99211,2.10328 -1.51975,5.18749 -4.73355,9.8753 -8.9759,13.0927 -4.25259,3.22517 -10.5838,5.61682 -16.59218,6.26779 -2.892157,0.31335 -8.796306,0.31195 -11.982824,-0.003 z m 75.867424,-19.2762 c 5.2619,-2.03467 8.92302,-7.9164 10.01347,-16.08705 0.48793,-3.65599 0.17557,-9.92751 -0.656,-13.17117 -1.64289,-6.40828 -5.48454,-11.31779 -10.01672,-12.80105 -2.55354,-0.8357 -4.12111,-0.9473 -6.34784,-0.4519 -8.20208,1.82479 -13.15185,11.74632 -12.12212,24.29809 0.26882,3.27668 0.5475,4.76038 1.3793,7.34341 1.89261,5.87721 5.89473,10.22527 10.46209,11.3664 1.71238,0.42783 5.57821,0.16434 7.28782,-0.49673 z"
         id="path2" /><path
         style="fill:#606364"
         d="m 187.27753,91.176742 c -2.87779,-0.774883 -4.22363,-2.793408 -4.40602,-6.608289 -0.19711,-4.122765 0.8193,-6.635373 3.19318,-7.893666 1.60011,-0.848155 4.88036,-0.853036 6.47051,-0.0096 2.29827,1.218999 3.12418,3.089462 3.12418,7.075467 0,2.642145 -0.0673,3.047511 -0.73041,4.397731 -0.83638,1.703086 -2.09514,2.711071 -3.8998,3.122862 -1.51292,0.345221 -2.21449,0.329424 -3.75164,-0.08448 z m 4.0148,-1.946424 c 0.56988,-0.285121 1.17732,-0.919415 1.58324,-1.653235 0.57802,-1.044935 0.65881,-1.51438 0.66028,-3.836458 0.002,-3.056778 -0.47325,-4.334947 -2.00053,-5.380992 -0.76929,-0.526892 -1.15294,-0.603086 -2.59046,-0.514475 -1.54004,0.09493 -1.7637,0.187222 -2.56036,1.056529 -1.06945,1.166979 -1.43735,2.412261 -1.43927,4.871818 -0.002,1.980161 0.49533,3.824958 1.26226,4.686487 1.09158,1.226214 3.45732,1.584611 5.08484,0.770326 z m -70.90691,-5.47293 V 76.2 h 1.0672 1.0672 l 3.59418,5.490104 c 1.97679,3.019557 3.64615,5.546187 3.70968,5.614733 0.42285,0.45623 0.60833,-1.331144 0.61185,-5.89608 l 0.004,-5.242285 0.85989,0.08291 0.8599,0.08291 v 7.408334 7.408333 l -0.98525,0.0817 -0.98525,0.0817 -3.64496,-5.569806 c -2.00473,-3.063394 -3.79137,-5.570707 -3.97032,-5.571808 -0.24476,-0.0015 -0.34308,1.358146 -0.39688,5.488103 l -0.0715,5.490104 -0.8599,0.08291 -0.85989,0.08291 z m 21.55728,7.206087 c -0.0742,-0.193366 -0.10315,-3.564486 -0.0643,-7.491379 l 0.0706,-7.139805 0.99219,-0.08212 0.99219,-0.08212 v 2.772457 c 0,1.524852 0.0723,2.960789 0.16059,3.190972 0.13537,0.352763 0.71653,0.418515 3.69913,0.418515 4.12999,0 3.77367,0.340205 3.87963,-3.704167 l 0.0659,-2.513542 h 0.92605 0.92604 v 7.408334 7.408333 h -0.92604 -0.92605 l -0.0753,-3.026603 c -0.0417,-1.67501 -0.20383,-3.18149 -0.36313,-3.373438 -0.20875,-0.25153 -1.17883,-0.346834 -3.53035,-0.346834 -2.35152,0 -3.32159,0.0953 -3.53034,0.346834 -0.1593,0.191948 -0.32146,1.698428 -0.36313,3.373438 l -0.0753,3.026603 -0.86171,0.08305 c -0.53685,0.05174 -0.91258,-0.0495 -0.99663,-0.268528 z m 20.16543,0.134249 c -0.15179,-0.246998 4.69543,-14.325866 5.05662,-14.687051 0.13252,-0.132521 0.88302,-0.20437 1.66779,-0.159665 l 1.42684,0.08128 2.4283,6.879167 c 1.33556,3.783542 2.43689,7.147057 2.44739,7.474479 0.0155,0.483864 -0.12343,0.595313 -0.74225,0.595313 -0.95934,0 -1.14955,-0.24899 -1.87174,-2.450116 -0.33389,-1.017645 -0.79778,-1.901536 -1.07616,-2.050521 -0.71938,-0.385003 -5.09353,-0.331426 -5.62242,0.06887 -0.24034,0.181901 -0.77426,1.223698 -1.18648,2.315104 -0.69365,1.83652 -0.81087,1.990415 -1.57314,2.065432 -0.453,0.04458 -0.88263,-0.01495 -0.95475,-0.132291 z m 8.70227,-6.524904 c 0.17034,-0.443887 -1.80979,-6.272855 -2.15367,-6.33985 -0.33837,-0.06592 -2.32953,5.802617 -2.13808,6.301543 0.20828,0.542763 4.0849,0.577364 4.29175,0.03831 z m -2.00623,-10.64939 c -0.65484,-0.213998 -1.69852,-0.339509 -2.31928,-0.278914 -1.34069,0.130872 -1.70055,-0.253202 -0.86851,-0.92695 0.73531,-0.595414 1.69833,-0.61687 3.22067,-0.07175 0.70701,0.253164 1.54403,0.354955 2.14993,0.261457 0.87186,-0.134538 0.99219,-0.08776 0.99219,0.385736 0,0.33496 -0.25679,0.636475 -0.67868,0.796877 -0.85117,0.323614 -1.034,0.311423 -2.49632,-0.166452 z M 72.40764,72.848611 c -0.09701,-0.09701 -0.176389,-3.34742 -0.176389,-7.223125 0,-5.128017 0.08645,-7.133187 0.3175,-7.364236 0.433815,-0.433815 1.929713,-0.400934 2.304498,0.05066 0.168048,0.202486 1.28973,2.494439 2.492626,5.093229 1.202896,2.598791 2.33324,4.725074 2.511875,4.725074 0.178634,0 1.267857,-2.083594 2.420493,-4.630208 2.708463,-5.984029 2.445699,-5.602266 3.788882,-5.504761 l 1.113084,0.0808 0.07027,7.474479 0.07027,7.47448 h -0.924794 -0.924794 l -0.07151,-5.490105 c -0.0454,-3.48546 -0.168123,-5.468994 -0.336097,-5.432292 -0.145521,0.0318 -1.161703,1.996328 -2.258182,4.365625 -1.888618,4.08097 -2.035622,4.311972 -2.791645,4.386798 -0.515738,0.05104 -0.94333,-0.08935 -1.208742,-0.396875 C 78.579103,70.196431 77.583161,68.226122 76.591781,66.07969 75.6004,63.933258 74.689969,62.177086 74.5686,62.177086 c -0.121369,0 -0.220672,2.25245 -0.220672,5.005444 0,2.752994 -0.07227,5.193775 -0.160599,5.423958 -0.159543,0.415763 -1.432813,0.588991 -1.779678,0.242126 z m 23.371528,-0.09407 c 0,-0.476685 4.792742,-14.111265 5.089942,-14.480061 0.14658,-0.181901 0.83267,-0.330729 1.52464,-0.330729 0.69246,0 1.37417,0.148699 1.51622,0.330729 0.27541,0.35292 5.09836,14.094459 5.09836,14.52624 0,0.140923 -0.44648,0.219271 -0.99218,0.174106 -0.9709,-0.08035 -1.00639,-0.121882 -1.65365,-1.935077 -0.3638,-1.019128 -0.75778,-2.001394 -0.87551,-2.182812 -0.15022,-0.231491 -1.11021,-0.329853 -3.21926,-0.329853 h -3.005212 l -0.419463,1.124479 c -0.230704,0.618464 -0.579222,1.600729 -0.774485,2.182813 -0.318287,0.948822 -0.455103,1.06683 -1.322213,1.14045 -0.596942,0.05068 -0.967189,-0.03364 -0.967189,-0.220285 z m 8.848082,-6.319107 c 0.13796,-0.223228 -1.78127,-6.010979 -2.09842,-6.328133 -0.0791,-0.07914 -0.24567,-0.03277 -0.37005,0.103047 -0.36175,0.39502 -2.14677,5.985221 -1.99141,6.236592 0.1882,0.304525 4.27107,0.293992 4.45988,-0.01151 z m 12.74377,6.171052 c -0.2423,-0.631425 -0.18479,-13.685812 0.062,-14.074712 0.31539,-0.496997 3.37298,-0.922012 5.20135,-0.723004 0.87312,0.09504 2.09034,0.394309 2.70492,0.665053 3.17144,1.397128 3.17576,6.187745 0.007,7.836236 -0.40019,0.208192 -0.72761,0.533431 -0.72761,0.722754 0,0.189323 0.83344,1.457057 1.85209,2.817188 1.01864,1.36013 1.85208,2.630922 1.85208,2.823982 0,0.224618 -0.33269,0.351018 -0.92389,0.351018 -0.86368,0 -1.04644,-0.168097 -2.8047,-2.579688 -2.2649,-3.106481 -2.69635,-3.505729 -3.78843,-3.505729 -1.32649,0 -1.47881,0.346109 -1.47881,3.360208 V 73.025 h -0.89774 c -0.57454,0 -0.95555,-0.15067 -1.05833,-0.418515 z m 6.56019,-7.623328 c 1.15879,-0.484171 1.74588,-1.364451 1.74588,-2.617756 0,-2.093331 -1.06048,-2.834151 -4.05705,-2.834151 -1.81583,0 -1.97889,0.04565 -2.12619,0.595312 -0.2893,1.079508 -0.18193,4.575353 0.15074,4.908021 0.43403,0.434039 3.20428,0.400805 4.28662,-0.05143 z m 11.43961,7.836223 c -0.13568,-0.219531 4.3069,-13.31607 4.88081,-14.388432 0.31984,-0.597624 2.64913,-0.696899 3.11724,-0.132857 0.33702,0.406083 5.06238,13.814068 5.06238,14.364259 0,0.23662 -0.31521,0.36265 -0.90703,0.36265 -0.8633,0 -0.93386,-0.07335 -1.46355,-1.521355 -0.30609,-0.836744 -0.68627,-1.848776 -0.84486,-2.248958 l -0.28834,-0.727604 h -2.99499 c -2.1009,0 -3.0589,0.09847 -3.20905,0.329853 -0.11773,0.181418 -0.51171,1.163684 -0.87551,2.182812 -0.61399,1.719978 -0.72139,1.858777 -1.49652,1.934017 -0.45929,0.04458 -0.90055,-0.02489 -0.98058,-0.154385 z m 8.70194,-6.47511 c 0.15972,-0.430097 -1.84252,-6.101901 -2.19563,-6.219602 -0.29548,-0.09849 -2.48406,6.155209 -2.23964,6.399621 0.31792,0.317924 4.31054,0.155872 4.43527,-0.180019 z"
         id="path1" /></g></g></svg>
